HIERARCHY
ROOT hip
{
  OFFSET 0 90.174 2.4664
  CHANNELS 6 Xposition Yposition Zposition Zrotation Xrotation Yrotation
  JOINT abdomen
  {
    OFFSET 0 -1.186 -1.5018
    CHANNELS 6 Xposition Yposition Zposition Zrotation Xrotation Yrotation
    JOINT abdomen2
    {
      OFFSET 0 9.964 0.2134
      CHANNELS 6 Xposition Yposition Zposition Zrotation Xrotation Yrotation
      JOINT chest
      {
        OFFSET 0 13.134 -3.2573
        CHANNELS 6 Xposition Yposition Zposition Zrotation Xrotation Yrotation
        JOINT neck
        {
          OFFSET 0 20.686 -1.6905
          CHANNELS 6 Xposition Yposition Zposition Zrotation Xrotation Yrotation
          JOINT head
          {
            OFFSET 0 7.238 -0.1237
            CHANNELS 6 Xposition Yposition Zposition Zrotation Xrotation Yrotation
            End Site
            {
              OFFSET 0 0 0
            }
          }
        }
        JOINT lCollar
        {
          OFFSET 1.7069 20.075 5.0056
          CHANNELS 6 Xposition Yposition Zposition Zrotation Xrotation Yrotation
          JOINT lShldr
          {
            OFFSET 13.6458 -0.047 -4.849
            CHANNELS 6 Xposition Yposition Zposition Zrotation Xrotation Yrotation
            JOINT lForeArm
            {
              OFFSET 28.3255 -0.9759 2.2888
              CHANNELS 6 Xposition Yposition Zposition Zrotation Xrotation Yrotation
              JOINT lHand
              {
                OFFSET 22.1583 -0.53 10.8316
                CHANNELS 6 Xposition Yposition Zposition Zrotation Xrotation Yrotation
                JOINT lThumb1
                {
                  OFFSET 0.786 0.112 2.5817
                  CHANNELS 6 Xposition Yposition Zposition Zrotation Xrotation Yrotation
                  JOINT lThumb2
                  {
                    OFFSET 0.3601 -0.878 4.2331
                    CHANNELS 6 Xposition Yposition Zposition Zrotation Xrotation Yrotation
                    JOINT lThumb2_End
                    {
                      OFFSET 1.8127 -1.216 2.2227
                      CHANNELS 6 Xposition Yposition Zposition Zrotation Xrotation Yrotation
                      End Site
                      {
                        OFFSET 0.0181 -0.0122 0.0222
                      }
                    }
                  }
                }
                JOINT lCarpal1
                {
                  OFFSET 0.9571 1.114 1.7695
                  CHANNELS 6 Xposition Yposition Zposition Zrotation Xrotation Yrotation
                  JOINT lIndex1
                  {
                    OFFSET 4.1246 0.487 4.1451
                    CHANNELS 6 Xposition Yposition Zposition Zrotation Xrotation Yrotation
                    JOINT lIndex2
                    {
                      OFFSET 3.4052 -1.454 2.7682
                      CHANNELS 6 Xposition Yposition Zposition Zrotation Xrotation Yrotation
                      JOINT lIndex2_End
                      {
                        OFFSET 1.4531 -1.795 1.2713
                        CHANNELS 6 Xposition Yposition Zposition Zrotation Xrotation Yrotation
                        End Site
                        {
                          OFFSET 0.0145 -0.0179 0.0127
                        }
                      }
                    }
                  }
                  JOINT lMid1
                  {
                    OFFSET 5.6954 0.21 2.1184
                    CHANNELS 6 Xposition Yposition Zposition Zrotation Xrotation Yrotation
                    JOINT lMid2
                    {
                      OFFSET 3.9766 -1.54 2.3863
                      CHANNELS 6 Xposition Yposition Zposition Zrotation Xrotation Yrotation
                      JOINT lMid2_End
                      {
                        OFFSET 1.4042 -1.926 1.125
                        CHANNELS 6 Xposition Yposition Zposition Zrotation Xrotation Yrotation
                        End Site
                        {
                          OFFSET 0.014 -0.0193 0.0113
                        }
                      }
                    }
                  }
                }
                JOINT lCarpal2
                {
                  OFFSET 2.0956 0.66 -0.3894
                  CHANNELS 6 Xposition Yposition Zposition Zrotation Xrotation Yrotation
                  JOINT lRing1
                  {
                    OFFSET 5.0395 -0.09 2.4971
                    CHANNELS 6 Xposition Yposition Zposition Zrotation Xrotation Yrotation
                    JOINT lRing2
                    {
                      OFFSET 3.7921 -1.552 1.4806
                      CHANNELS 6 Xposition Yposition Zposition Zrotation Xrotation Yrotation
                      JOINT lRing2_End
                      {
                        OFFSET 1.4655 -1.808 0.9609
                        CHANNELS 6 Xposition Yposition Zposition Zrotation Xrotation Yrotation
                        End Site
                        {
                          OFFSET 0.0147 -0.0181 0.0096
                        }
                      }
                    }
                  }
                  JOINT lPinky1
                  {
                    OFFSET 4.9141 -1.269 0.3591
                    CHANNELS 6 Xposition Yposition Zposition Zrotation Xrotation Yrotation
                    JOINT lPinky2
                    {
                      OFFSET 3.1477 -1.685 0.8462
                      CHANNELS 6 Xposition Yposition Zposition Zrotation Xrotation Yrotation
                      JOINT lPinky2_End
                      {
                        OFFSET 0.8055 -1.585 0.7955
                        CHANNELS 6 Xposition Yposition Zposition Zrotation Xrotation Yrotation
                        End Site
                        {
                          OFFSET 0.0081 -0.0158 0.008
                        }
                      }
                    }
                  }
                }
              }
            }
          }
        }
        JOINT rCollar
        {
          OFFSET -1.7069 20.075 5.0056
          CHANNELS 6 Xposition Yposition Zposition Zrotation Xrotation Yrotation
          JOINT rShldr
          {
            OFFSET -13.6458 -0.047 -4.849
            CHANNELS 6 Xposition Yposition Zposition Zrotation Xrotation Yrotation
            JOINT rForeArm
            {
              OFFSET -28.3255 -0.9759 2.2888
              CHANNELS 6 Xposition Yposition Zposition Zrotation Xrotation Yrotation
              JOINT rHand
              {
                OFFSET -22.1583 -0.53 10.8316
                CHANNELS 6 Xposition Yposition Zposition Zrotation Xrotation Yrotation
                JOINT rThumb1
                {
                  OFFSET -0.786 0.112 2.5817
                  CHANNELS 6 Xposition Yposition Zposition Zrotation Xrotation Yrotation
                  JOINT rThumb2
                  {
                    OFFSET -0.3601 -0.878 4.2331
                    CHANNELS 6 Xposition Yposition Zposition Zrotation Xrotation Yrotation
                    JOINT rThumb2_End
                    {
                      OFFSET -1.8127 -1.216 2.2227
                      CHANNELS 6 Xposition Yposition Zposition Zrotation Xrotation Yrotation
                      End Site
                      {
                        OFFSET -0.0181 -0.0122 0.0222
                      }
                    }
                  }
                }
                JOINT rCarpal1
                {
                  OFFSET -0.9571 1.114 1.7695
                  CHANNELS 6 Xposition Yposition Zposition Zrotation Xrotation Yrotation
                  JOINT rIndex1
                  {
                    OFFSET -4.1246 0.487 4.1451
                    CHANNELS 6 Xposition Yposition Zposition Zrotation Xrotation Yrotation
                    JOINT rIndex2
                    {
                      OFFSET -3.4052 -1.454 2.7682
                      CHANNELS 6 Xposition Yposition Zposition Zrotation Xrotation Yrotation
                      JOINT rIndex2_End
                      {
                        OFFSET -1.4531 -1.795 1.2713
                        CHANNELS 6 Xposition Yposition Zposition Zrotation Xrotation Yrotation
                        End Site
                        {
                          OFFSET -0.0145 -0.018 0.0127
                        }
                      }
                    }
                  }
                  JOINT rMid1
                  {
                    OFFSET -5.6954 0.21 2.1184
                    CHANNELS 6 Xposition Yposition Zposition Zrotation Xrotation Yrotation
                    JOINT rMid2
                    {
                      OFFSET -3.9766 -1.54 2.3863
                      CHANNELS 6 Xposition Yposition Zposition Zrotation Xrotation Yrotation
                      JOINT rMid2_End
                      {
                        OFFSET -1.4042 -1.926 1.125
                        CHANNELS 6 Xposition Yposition Zposition Zrotation Xrotation Yrotation
                        End Site
                        {
                          OFFSET -0.014 -0.0193 0.0113
                        }
                      }
                    }
                  }
                }
                JOINT rCarpal2
                {
                  OFFSET -2.0956 0.66 -0.3894
                  CHANNELS 6 Xposition Yposition Zposition Zrotation Xrotation Yrotation
                  JOINT rRing1
                  {
                    OFFSET -5.0395 -0.09 2.4971
                    CHANNELS 6 Xposition Yposition Zposition Zrotation Xrotation Yrotation
                    JOINT rRing2
                    {
                      OFFSET -3.7921 -1.552 1.4806
                      CHANNELS 6 Xposition Yposition Zposition Zrotation Xrotation Yrotation
                      JOINT rRing2_End
                      {
                        OFFSET -1.4655 -1.808 0.9609
                        CHANNELS 6 Xposition Yposition Zposition Zrotation Xrotation Yrotation
                        End Site
                        {
                          OFFSET -0.0147 -0.0181 0.0096
                        }
                      }
                    }
                  }
                  JOINT rPinky1
                  {
                    OFFSET -4.9141 -1.269 0.3592
                    CHANNELS 6 Xposition Yposition Zposition Zrotation Xrotation Yrotation
                    JOINT rPinky2
                    {
                      OFFSET -3.1477 -1.685 0.8462
                      CHANNELS 6 Xposition Yposition Zposition Zrotation Xrotation Yrotation
                      JOINT rPinky2_End
                      {
                        OFFSET -0.8055 -1.585 0.7955
                        CHANNELS 6 Xposition Yposition Zposition Zrotation Xrotation Yrotation
                        End Site
                        {
                          OFFSET -0.0081 -0.0158 0.008
                        }
                      }
                    }
                  }
                }
              }
            }
          }
        }
      }
    }
  }
  JOINT lThigh
  {
    OFFSET 8.367 -8.2066 0.5982
    CHANNELS 6 Xposition Yposition Zposition Zrotation Xrotation Yrotation
    JOINT lShin
    {
      OFFSET 2.1923 -43.463 -0.4932
      CHANNELS 6 Xposition Yposition Zposition Zrotation Xrotation Yrotation
      JOINT lFoot
      {
        OFFSET 0.7333 -45.8593 -2.6451
        CHANNELS 6 Xposition Yposition Zposition Zrotation Xrotation Yrotation
        End Site
        {
          OFFSET 2.6618 -4.2699 12.3931
        }
      }
    }
  }
  JOINT rThigh
  {
    OFFSET -8.367 -8.2066 0.5982
    CHANNELS 6 Xposition Yposition Zposition Zrotation Xrotation Yrotation
    JOINT rShin
    {
      OFFSET -2.1923 -43.463 -0.4931
      CHANNELS 6 Xposition Yposition Zposition Zrotation Xrotation Yrotation
      JOINT rFoot
      {
        OFFSET -0.7333 -45.8593 -2.6451
        CHANNELS 6 Xposition Yposition Zposition Zrotation Xrotation Yrotation
        End Site
        {
          OFFSET -2.6618 -4.2699 12.3931
        }
      }
    }
  }
}
MOTION
Frames:	4
Frame Time:	0.0333333
0 90.174 2.4664 0 0 -0 0 -1.186 -1.5018 0 0 -0 0 9.964 0.2134 0 0 -0 0 13.134 -3.2573 0 0 -0 0 20.686 -1.6905 0 0 -0 0 7.238 -0.1237 0 0 -0 1.7069 20.075 5.0056 0 0 -0 13.6458 -0.047 -4.849 1.66051 0.0835086 5.75766 28.3255 -0.9759 2.2888 -0.0175111 0.895433 15.7816 22.1583 -0.53 10.8316 7.95139e-016 -1.98785e-016 -0 0.786 0.112 2.5817 5.46658e-016 -3.97569e-016 -0 0.3601 -0.878 4.2331 5.96354e-016 0 -0 1.8127 -1.216 2.2227 3.97569e-016 1.98785e-016 9.54166e-015 0.9571 1.114 1.7695 1.49089e-016 -3.97569e-016 -0 4.1246 0.487 4.1451 6.4605e-016 0 3.18055e-015 3.4052 -1.454 2.7682 5.96354e-016 0 3.18055e-015 1.4531 -1.795 1.2713 8.94531e-016 -1.98785e-016 6.36111e-015 5.6954 0.21 2.1184 6.4605e-016 0 3.18055e-015 3.9766 -1.54 2.3863 5.96354e-016 0 3.18055e-015 1.4042 -1.926 1.125 8.94531e-016 -1.98785e-016 6.36111e-015 2.0956 0.66 -0.3894 1.49089e-016 -3.97569e-016 -0 5.0395 -0.09 2.4971 6.4605e-016 0 3.18055e-015 3.7921 -1.552 1.4806 5.96354e-016 0 3.18055e-015 1.4655 -1.808 0.9609 8.94531e-016 -1.98785e-016 6.36111e-015 4.9141 -1.269 0.3591 6.4605e-016 0 3.18055e-015 3.1477 -1.685 0.8462 5.96354e-016 0 3.18055e-015 0.8055 -1.585 0.7955 8.94531e-016 -1.98785e-016 6.36111e-015 -1.7069 20.075 5.0056 0 0 -0 -13.6458 -0.047 -4.849 -1.4496 0.0636048 -5.0245 -28.3255 -0.9759 2.2888 -1.74811 1.20616 -16.8394 -22.1583 -0.53 10.8316 -1.19271e-015 1.98785e-016 -3.18055e-015 -0.786 0.112 2.5817 -3.97569e-016 1.98785e-016 -3.18055e-015 -0.3601 -0.878 4.2331 -2.98177e-016 1.98785e-016 -3.18055e-015 -1.8127 -1.216 2.2227 -2.98177e-016 3.97569e-016 -0 -0.9571 1.114 1.7695 4.96962e-016 0 -6.36111e-015 -4.1246 0.487 4.1451 -9.93923e-017 3.97569e-016 -0 -3.4052 -1.454 2.7682 -8.94531e-016 5.96354e-016 -0 -1.4531 -1.795 1.2713 -3.97569e-016 3.97569e-016 -0 -5.6954 0.21 2.1184 -9.93923e-017 3.97569e-016 -0 -3.9766 -1.54 2.3863 -8.94531e-016 5.96354e-016 -0 -1.4042 -1.926 1.125 -3.97569e-016 3.97569e-016 -0 -2.0956 0.66 -0.3894 4.96962e-016 0 -6.36111e-015 -5.0395 -0.09 2.4971 -9.93923e-017 3.97569e-016 -0 -3.7921 -1.552 1.4806 -8.94531e-016 5.96354e-016 -0 -1.4655 -1.808 0.9609 -3.97569e-016 3.97569e-016 -0 -4.9141 -1.269 0.3592 -9.93923e-017 3.97569e-016 -0 -3.1477 -1.685 0.8462 -8.94531e-016 5.96354e-016 -0 -0.8055 -1.585 0.7955 -3.97569e-016 3.97569e-016 -0 8.367 -8.2066 0.5982 -4.66115 -1.03232 0.120763 2.1923 -43.463 -0.4932 0.00990601 1.55097 0.177175 0.7333 -45.8593 -2.6451 4.65196 -0.54114 -0.255042 -8.367 -8.2066 0.5982 4.66115 -1.03222 -0.120763 -2.1923 -43.463 -0.4931 -0.00990459 1.5509 -0.177176 -0.7333 -45.8593 -2.6451 -4.65196 -0.541171 0.255041 
-0.00353225 1.44135 -10.0059 -180 -89.9981 -180 0 -1.186 -1.5018 -0.0965474 4.71971 -0.149039 -3.46945e-018 9.964 0.2134 -0.181657 9.43965 -0.291559 -1.38778e-017 13.134 -3.2573 -0.181657 9.43967 -0.291559 0 20.686 -1.6905 -6.94061e-007 17.9949 -1.47059e-006 5.55112e-017 7.238 -0.1237 1.93307e-007 8.99155 1.08876e-007 1.7069 20.075 5.0056 -9.00483 6.07974 2.16367 13.6458 -0.047 -4.849 -64.2486 5.23381 -19.8933 28.3255 -0.9759 2.2888 -11.1998 -0.402392 -46.0959 22.1583 -0.53 10.8316 -4.14619 24.9598 1.20961 0.786 0.112 2.5817 -2.11868e-030 -9.54166e-015 -1.27222e-014 0.3601 -0.878 4.2331 -3.18055e-015 -9.54166e-015 -6.36111e-015 1.8127 -1.216 2.2227 8.01142e-007 1.26434e-006 -7.7734e-007 0.9571 1.114 1.7695 1.59028e-015 2.38542e-015 -3.18055e-015 4.1246 0.487 4.1451 1.59028e-015 -1.27222e-014 -9.54166e-015 3.4052 -1.454 2.7682 1.59028e-015 -1.90833e-014 -1.59028e-014 1.4531 -1.795 1.2713 8.01142e-007 1.26434e-006 -7.7734e-007 5.6954 0.21 2.1184 1.59028e-015 -1.27222e-014 -9.54166e-015 3.9766 -1.54 2.3863 1.59028e-015 -1.90833e-014 -1.59028e-014 1.4042 -1.926 1.125 8.01142e-007 1.26434e-006 -7.7734e-007 2.0956 0.66 -0.3894 1.59028e-015 2.38542e-015 -3.18055e-015 5.0395 -0.09 2.4971 1.59028e-015 -1.27222e-014 -9.54166e-015 3.7921 -1.552 1.4806 1.59028e-015 -1.90833e-014 -1.59028e-014 1.4655 -1.808 0.9609 8.01142e-007 1.26434e-006 -7.7734e-007 4.9141 -1.269 0.3591 1.59028e-015 -1.27222e-014 -9.54166e-015 3.1477 -1.685 0.8462 1.59028e-015 -1.90833e-014 -1.59028e-014 0.8055 -1.585 0.7955 8.01142e-007 1.26434e-006 -7.7734e-007 -1.7069 20.075 5.0056 8.96671 5.95557 -2.09552 -13.6458 -0.047 -4.849 64.4449 5.44071 20.5822 -28.3255 -0.9759 2.2888 10.0315 -1.84671 45.3115 -22.1583 -0.53 10.8316 3.89887 25.5819 -0.997218 -0.786 0.112 2.5817 3.08973e-031 5.56597e-015 -3.18055e-015 -0.3601 -0.878 4.2331 -8.24576e-007 1.23289e-006 8.07128e-007 -1.8127 -1.216 2.2227 -1.59028e-015 -2.38542e-015 -6.36111e-015 -0.9571 1.114 1.7695 3.53113e-031 6.36111e-015 -3.18055e-015 -4.1246 0.487 4.1451 -1.59028e-015 5.56597e-015 -6.36111e-015 -3.4052 -1.454 2.7682 -8.24576e-007 1.23289e-006 8.07128e-007 -1.4531 -1.795 1.2713 4.77083e-015 7.15625e-015 -9.54166e-015 -5.6954 0.21 2.1184 -1.59028e-015 5.56597e-015 -6.36111e-015 -3.9766 -1.54 2.3863 -8.24576e-007 1.23289e-006 8.07128e-007 -1.4042 -1.926 1.125 4.77083e-015 7.15625e-015 -9.54166e-015 -2.0956 0.66 -0.3894 3.53113e-031 6.36111e-015 -3.18055e-015 -5.0395 -0.09 2.4971 -1.59028e-015 5.56597e-015 -6.36111e-015 -3.7921 -1.552 1.4806 -8.24576e-007 1.23289e-006 8.07128e-007 -1.4655 -1.808 0.9609 4.77083e-015 7.15625e-015 -9.54166e-015 -4.9141 -1.269 0.3592 -1.59028e-015 5.56597e-015 -6.36111e-015 -3.1477 -1.685 0.8462 -8.24576e-007 1.23289e-006 8.07128e-007 -0.8055 -1.585 0.7955 4.77083e-015 7.15625e-015 -9.54166e-015 8.367 -8.2066 0.5982 -6.76131 -0.785492 -10.4457 2.1923 -43.463 -0.4932 1.91459 10.9881 0.489664 0.7333 -45.8593 -2.6451 5.04099 14.5191 12.4992 -8.367 -8.2066 0.5982 6.79735 -1.14854 7.33574 -2.1923 -43.463 -0.4931 -2.61118 11.319 -0.333833 -0.7333 -45.8593 -2.6451 -5.36392 14.6791 -9.40719 
-0.00334267 1.44161 -10.0083 -180 -89.9981 -180 0 -1.186 -1.5018 -0.0967612 4.80764 -0.148963 6.93889e-018 9.964 0.2134 -0.181893 9.61551 -0.291291 2.77556e-017 13.134 -3.2573 -0.181893 9.61553 -0.291291 5.55112e-017 20.686 -1.6905 -0.259204 17.7627 0.0449046 0 7.238 -0.1237 0.0454775 8.85056 0.0452012 1.7069 20.075 5.0056 -9.01962 5.74969 1.91601 13.6458 -0.047 -4.849 -63.9606 5.05647 -19.8756 28.3255 -0.9759 2.2888 -11.1264 -0.570489 -45.9706 22.1583 -0.53 10.8316 -3.85588 24.8837 0.212371 0.786 0.112 2.5817 1.59028e-015 -1.27222e-014 -3.18055e-015 0.3601 -0.878 4.2331 -2.25109e-030 -1.35174e-014 -9.54166e-015 1.8127 -1.216 2.2227 -1.11319e-014 -7.15625e-015 -0 0.9571 1.114 1.7695 3.18055e-015 3.97569e-015 -0 4.1246 0.487 4.1451 -0 -9.54166e-015 -0 3.4052 -1.454 2.7682 -3.18055e-015 -2.38542e-015 -6.36111e-015 1.4531 -1.795 1.2713 -6.36111e-015 -2.38542e-015 -3.18055e-015 5.6954 0.21 2.1184 -0 -9.54166e-015 -0 3.9766 -1.54 2.3863 -3.18055e-015 -2.38542e-015 -6.36111e-015 1.4042 -1.926 1.125 -6.36111e-015 -2.38542e-015 -3.18055e-015 2.0956 0.66 -0.3894 3.18055e-015 3.97569e-015 -0 5.0395 -0.09 2.4971 -0 -9.54166e-015 -0 3.7921 -1.552 1.4806 -3.18055e-015 -2.38542e-015 -6.36111e-015 1.4655 -1.808 0.9609 -6.36111e-015 -2.38542e-015 -3.18055e-015 4.9141 -1.269 0.3591 -0 -9.54166e-015 -0 3.1477 -1.685 0.8462 -3.18055e-015 -2.38542e-015 -6.36111e-015 0.8055 -1.585 0.7955 -6.36111e-015 -2.38542e-015 -3.18055e-015 -1.7069 20.075 5.0056 9.1651 5.74251 -1.7395 -13.6458 -0.047 -4.849 64.1211 5.2379 20.5862 -28.3255 -0.9759 2.2888 9.93383 -2.0492 45.1162 -22.1583 -0.53 10.8316 3.42574 25.5628 0.117625 -0.786 0.112 2.5817 -1.39662e-006 -7.04025e-007 -1.79137e-006 -0.3601 -0.878 4.2331 -1.63928e-006 2.46869e-006 1.62456e-006 -1.8127 -1.216 2.2227 5.76983e-007 1.93837e-006 2.60365e-006 -0.9571 1.114 1.7695 -4.77083e-015 -8.74653e-015 -0 -4.1246 0.487 4.1451 -1.39662e-006 -7.04025e-007 -1.79137e-006 -3.4052 -1.454 2.7682 -1.63928e-006 2.46869e-006 1.62456e-006 -1.4531 -1.795 1.2713 5.76983e-007 1.93837e-006 2.60365e-006 -5.6954 0.21 2.1184 -1.39662e-006 -7.04025e-007 -1.79137e-006 -3.9766 -1.54 2.3863 -1.63928e-006 2.46869e-006 1.62456e-006 -1.4042 -1.926 1.125 5.76983e-007 1.93837e-006 2.60365e-006 -2.0956 0.66 -0.3894 -4.77083e-015 -8.74653e-015 -0 -5.0395 -0.09 2.4971 -1.39662e-006 -7.04025e-007 -1.79137e-006 -3.7921 -1.552 1.4806 -1.63928e-006 2.46869e-006 1.62456e-006 -1.4655 -1.808 0.9609 5.76983e-007 1.93837e-006 2.60365e-006 -4.9141 -1.269 0.3592 -1.39662e-006 -7.04025e-007 -1.79137e-006 -3.1477 -1.685 0.8462 -1.63928e-006 2.46869e-006 1.62456e-006 -0.8055 -1.585 0.7955 5.76983e-007 1.93837e-006 2.60365e-006 8.367 -8.2066 0.5982 -6.76491 -0.797762 -10.4462 2.1923 -43.463 -0.4932 1.91542 11.0153 0.497281 0.7333 -45.8593 -2.6451 4.9789 14.6637 12.2656 -8.367 -8.2066 0.5982 6.79584 -1.1405 7.33528 -2.1923 -43.463 -0.4931 -2.61082 11.3021 -0.333244 -0.7333 -45.8593 -2.6451 -5.36396 14.6878 -9.40687 
-0.00315116 1.44188 -10.0108 -180 -89.9981 -180 0 -1.186 -1.5018 -0.0969706 4.89589 -0.148879 0 9.964 0.2134 -0.182122 9.79203 -0.291009 2.77556e-017 13.134 -3.2573 -0.182121 9.79206 -0.291009 0 20.686 -1.6905 -0.518041 17.5303 0.088675 -1.11022e-016 7.238 -0.1237 0.0910641 8.70957 0.0905115 1.7069 20.075 5.0056 -9.03583 5.41961 1.66835 13.6458 -0.047 -4.849 -63.6727 4.87917 -19.857 28.3255 -0.9759 2.2888 -11.0526 -0.738415 -45.8451 22.1583 -0.53 10.8316 -3.56696 24.8029 -0.78482 0.786 0.112 2.5817 -1.32417e-031 2.38542e-015 3.18055e-015 0.3601 -0.878 4.2331 -1.62791e-006 1.85272e-006 8.48887e-007 1.8127 -1.216 2.2227 -1.02096e-006 7.27686e-007 -1.4808e-006 0.9571 1.114 1.7695 -4.41391e-032 7.95139e-016 3.18055e-015 4.1246 0.487 4.1451 -4.77083e-015 4.77083e-015 9.54166e-015 3.4052 -1.454 2.7682 -1.62791e-006 1.85272e-006 8.48887e-007 1.4531 -1.795 1.2713 -1.02096e-006 7.27686e-007 -1.4808e-006 5.6954 0.21 2.1184 -4.77083e-015 4.77083e-015 9.54166e-015 3.9766 -1.54 2.3863 -1.62791e-006 1.85272e-006 8.48887e-007 1.4042 -1.926 1.125 -1.02096e-006 7.27686e-007 -1.4808e-006 2.0956 0.66 -0.3894 -4.41391e-032 7.95139e-016 3.18055e-015 5.0395 -0.09 2.4971 -4.77083e-015 4.77083e-015 9.54166e-015 3.7921 -1.552 1.4806 -1.62791e-006 1.85272e-006 8.48887e-007 1.4655 -1.808 0.9609 -1.02096e-006 7.27686e-007 -1.4808e-006 4.9141 -1.269 0.3591 -4.77083e-015 4.77083e-015 9.54166e-015 3.1477 -1.685 0.8462 -1.62791e-006 1.85272e-006 8.48887e-007 0.8055 -1.585 0.7955 -1.02096e-006 7.27686e-007 -1.4808e-006 -1.7069 20.075 5.0056 9.36479 5.53064 -1.38277 -13.6458 -0.047 -4.849 63.7975 5.03503 20.5891 -28.3255 -0.9759 2.2888 9.8355 -2.25132 44.9206 -22.1583 -0.53 10.8316 2.95268 25.5353 1.23341 -0.786 0.112 2.5817 -8.14652e-007 1.23576e-006 8.17403e-007 -0.3601 -0.878 4.2331 2.62675e-006 -9.64311e-007 7.31139e-007 -1.8127 -1.216 2.2227 -8.14652e-007 1.23576e-006 8.17404e-007 -0.9571 1.114 1.7695 1.59028e-015 -1.59028e-015 -3.18055e-015 -4.1246 0.487 4.1451 -8.14652e-007 1.23576e-006 8.17403e-007 -3.4052 -1.454 2.7682 2.62675e-006 -9.64311e-007 7.31139e-007 -1.4531 -1.795 1.2713 -8.14652e-007 1.23576e-006 8.17404e-007 -5.6954 0.21 2.1184 -8.14652e-007 1.23576e-006 8.17403e-007 -3.9766 -1.54 2.3863 2.62675e-006 -9.64311e-007 7.31139e-007 -1.4042 -1.926 1.125 -8.14652e-007 1.23576e-006 8.17404e-007 -2.0956 0.66 -0.3894 1.59028e-015 -1.59028e-015 -3.18055e-015 -5.0395 -0.09 2.4971 -8.14652e-007 1.23576e-006 8.17403e-007 -3.7921 -1.552 1.4806 2.62675e-006 -9.64311e-007 7.31139e-007 -1.4655 -1.808 0.9609 -8.14652e-007 1.23576e-006 8.17404e-007 -4.9141 -1.269 0.3592 -8.14652e-007 1.23576e-006 8.17403e-007 -3.1477 -1.685 0.8462 2.62675e-006 -9.64311e-007 7.31139e-007 -0.8055 -1.585 0.7955 -8.14652e-007 1.23576e-006 8.17404e-007 8.367 -8.2066 0.5982 -6.76834 -0.811361 -10.4468 2.1923 -43.463 -0.4932 1.91586 11.0435 0.504896 0.7333 -45.8593 -2.6451 4.91744 14.8088 12.032 -8.367 -8.2066 0.5982 6.79432 -1.13247 7.33483 -2.1923 -43.463 -0.4931 -2.61044 11.2852 -0.332674 -0.7333 -45.8593 -2.6451 -5.364 14.6966 -9.40655 
